<mxfile host="app.diagrams.net" agent="Mozilla/5.0 (Windows NT 10.0; Win64; x64) AppleWebKit/537.36 (KHTML, like Gecko) Chrome/132.0.0.0 Safari/537.36" version="26.0.10">
  <diagram id="C5RBs43oDa-KdzZeNtuy" name="Page-1">
    <mxGraphModel dx="496" dy="497" grid="1" gridSize="10" guides="1" tooltips="1" connect="1" arrows="1" fold="1" page="1" pageScale="1" pageWidth="827" pageHeight="1169" math="0" shadow="0">
      <root>
        <mxCell id="WIyWlLk6GJQsqaUBKTNV-0" />
        <mxCell id="WIyWlLk6GJQsqaUBKTNV-1" parent="WIyWlLk6GJQsqaUBKTNV-0" />
        <mxCell id="CiK8L1ViW6HMT-3uaAQ4-5" style="edgeStyle=orthogonalEdgeStyle;rounded=0;orthogonalLoop=1;jettySize=auto;html=1;exitX=0;exitY=0.5;exitDx=0;exitDy=0;entryX=0;entryY=0.5;entryDx=0;entryDy=0;" edge="1" parent="WIyWlLk6GJQsqaUBKTNV-1" source="WIyWlLk6GJQsqaUBKTNV-3" target="CiK8L1ViW6HMT-3uaAQ4-1">
          <mxGeometry relative="1" as="geometry" />
        </mxCell>
        <mxCell id="CiK8L1ViW6HMT-3uaAQ4-6" style="edgeStyle=orthogonalEdgeStyle;rounded=0;orthogonalLoop=1;jettySize=auto;html=1;entryX=-0.008;entryY=0.647;entryDx=0;entryDy=0;entryPerimeter=0;" edge="1" parent="WIyWlLk6GJQsqaUBKTNV-1" source="WIyWlLk6GJQsqaUBKTNV-3" target="CiK8L1ViW6HMT-3uaAQ4-2">
          <mxGeometry relative="1" as="geometry">
            <mxPoint x="40" y="320" as="targetPoint" />
            <Array as="points">
              <mxPoint x="120" y="60" />
              <mxPoint x="120" y="319" />
            </Array>
          </mxGeometry>
        </mxCell>
        <mxCell id="CiK8L1ViW6HMT-3uaAQ4-10" style="edgeStyle=orthogonalEdgeStyle;rounded=0;orthogonalLoop=1;jettySize=auto;html=1;entryX=0.018;entryY=0.647;entryDx=0;entryDy=0;entryPerimeter=0;" edge="1" parent="WIyWlLk6GJQsqaUBKTNV-1" source="WIyWlLk6GJQsqaUBKTNV-3" target="CiK8L1ViW6HMT-3uaAQ4-3">
          <mxGeometry relative="1" as="geometry">
            <mxPoint x="80" y="440" as="targetPoint" />
            <Array as="points">
              <mxPoint x="81" y="60" />
              <mxPoint x="81" y="439" />
            </Array>
          </mxGeometry>
        </mxCell>
        <mxCell id="CiK8L1ViW6HMT-3uaAQ4-23" style="edgeStyle=orthogonalEdgeStyle;rounded=0;orthogonalLoop=1;jettySize=auto;html=1;entryX=0;entryY=0.5;entryDx=0;entryDy=0;" edge="1" parent="WIyWlLk6GJQsqaUBKTNV-1" source="WIyWlLk6GJQsqaUBKTNV-3" target="CiK8L1ViW6HMT-3uaAQ4-16">
          <mxGeometry relative="1" as="geometry" />
        </mxCell>
        <mxCell id="WIyWlLk6GJQsqaUBKTNV-3" value="&lt;span id=&quot;docs-internal-guid-cf432512-7fff-5883-478b-b84256efadac&quot;&gt;&lt;span style=&quot;font-size: 12pt; font-family: Merriweather, serif; background-color: transparent; font-weight: 700; font-variant-numeric: normal; font-variant-east-asian: normal; font-variant-alternates: normal; font-variant-position: normal; font-variant-emoji: normal; vertical-align: baseline; white-space-collapse: preserve;&quot;&gt;Title page&lt;/span&gt;&lt;/span&gt;&lt;div&gt;&lt;span&gt;&lt;span style=&quot;font-size: 12pt; font-family: Merriweather, serif; background-color: transparent; font-weight: 700; font-variant-numeric: normal; font-variant-east-asian: normal; font-variant-alternates: normal; font-variant-position: normal; font-variant-emoji: normal; vertical-align: baseline; white-space-collapse: preserve;&quot;&gt;index.html&lt;/span&gt;&lt;/span&gt;&lt;/div&gt;" style="rounded=1;whiteSpace=wrap;html=1;fontSize=12;glass=0;strokeWidth=1;shadow=0;" parent="WIyWlLk6GJQsqaUBKTNV-1" vertex="1">
          <mxGeometry x="160" y="40" width="120" height="40" as="geometry" />
        </mxCell>
        <mxCell id="CiK8L1ViW6HMT-3uaAQ4-25" style="edgeStyle=orthogonalEdgeStyle;rounded=0;orthogonalLoop=1;jettySize=auto;html=1;entryX=0;entryY=0.5;entryDx=0;entryDy=0;" edge="1" parent="WIyWlLk6GJQsqaUBKTNV-1" source="CiK8L1ViW6HMT-3uaAQ4-1" target="CiK8L1ViW6HMT-3uaAQ4-19">
          <mxGeometry relative="1" as="geometry" />
        </mxCell>
        <mxCell id="CiK8L1ViW6HMT-3uaAQ4-1" value="About Us.&lt;div&gt;about.html&lt;/div&gt;" style="rounded=0;whiteSpace=wrap;html=1;" vertex="1" parent="WIyWlLk6GJQsqaUBKTNV-1">
          <mxGeometry x="160" y="160" width="120" height="60" as="geometry" />
        </mxCell>
        <mxCell id="CiK8L1ViW6HMT-3uaAQ4-26" style="edgeStyle=orthogonalEdgeStyle;rounded=0;orthogonalLoop=1;jettySize=auto;html=1;" edge="1" parent="WIyWlLk6GJQsqaUBKTNV-1" source="CiK8L1ViW6HMT-3uaAQ4-2" target="CiK8L1ViW6HMT-3uaAQ4-20">
          <mxGeometry relative="1" as="geometry" />
        </mxCell>
        <mxCell id="CiK8L1ViW6HMT-3uaAQ4-2" value="My skills.&lt;div&gt;mySkill.html&lt;/div&gt;" style="rounded=0;whiteSpace=wrap;html=1;" vertex="1" parent="WIyWlLk6GJQsqaUBKTNV-1">
          <mxGeometry x="160" y="280" width="120" height="60" as="geometry" />
        </mxCell>
        <mxCell id="CiK8L1ViW6HMT-3uaAQ4-27" style="edgeStyle=orthogonalEdgeStyle;rounded=0;orthogonalLoop=1;jettySize=auto;html=1;" edge="1" parent="WIyWlLk6GJQsqaUBKTNV-1" source="CiK8L1ViW6HMT-3uaAQ4-3" target="CiK8L1ViW6HMT-3uaAQ4-21">
          <mxGeometry relative="1" as="geometry" />
        </mxCell>
        <mxCell id="CiK8L1ViW6HMT-3uaAQ4-3" value="Projects.&lt;div&gt;project.html&lt;/div&gt;" style="rounded=0;whiteSpace=wrap;html=1;" vertex="1" parent="WIyWlLk6GJQsqaUBKTNV-1">
          <mxGeometry x="160" y="400" width="120" height="60" as="geometry" />
        </mxCell>
        <mxCell id="CiK8L1ViW6HMT-3uaAQ4-28" style="edgeStyle=orthogonalEdgeStyle;rounded=0;orthogonalLoop=1;jettySize=auto;html=1;" edge="1" parent="WIyWlLk6GJQsqaUBKTNV-1" source="CiK8L1ViW6HMT-3uaAQ4-4" target="CiK8L1ViW6HMT-3uaAQ4-22">
          <mxGeometry relative="1" as="geometry" />
        </mxCell>
        <mxCell id="CiK8L1ViW6HMT-3uaAQ4-4" value="Contact Me&lt;div&gt;contact.html&lt;/div&gt;" style="rounded=0;whiteSpace=wrap;html=1;" vertex="1" parent="WIyWlLk6GJQsqaUBKTNV-1">
          <mxGeometry x="160" y="520" width="120" height="60" as="geometry" />
        </mxCell>
        <mxCell id="CiK8L1ViW6HMT-3uaAQ4-15" style="edgeStyle=orthogonalEdgeStyle;rounded=0;orthogonalLoop=1;jettySize=auto;html=1;entryX=0;entryY=0.5;entryDx=0;entryDy=0;exitX=0;exitY=0.5;exitDx=0;exitDy=0;" edge="1" parent="WIyWlLk6GJQsqaUBKTNV-1" source="WIyWlLk6GJQsqaUBKTNV-3" target="CiK8L1ViW6HMT-3uaAQ4-4">
          <mxGeometry relative="1" as="geometry">
            <mxPoint x="40" y="560" as="targetPoint" />
            <mxPoint x="150" y="60" as="sourcePoint" />
            <Array as="points">
              <mxPoint x="40" y="60" />
              <mxPoint x="40" y="550" />
            </Array>
          </mxGeometry>
        </mxCell>
        <mxCell id="CiK8L1ViW6HMT-3uaAQ4-16" value="Purpose:&lt;div&gt;Introduces visitors to my site&lt;/div&gt;" style="ellipse;whiteSpace=wrap;html=1;" vertex="1" parent="WIyWlLk6GJQsqaUBKTNV-1">
          <mxGeometry x="420" y="20" width="120" height="80" as="geometry" />
        </mxCell>
        <mxCell id="CiK8L1ViW6HMT-3uaAQ4-19" value="Purpose:&lt;div&gt;Provide background about me&lt;/div&gt;" style="ellipse;whiteSpace=wrap;html=1;" vertex="1" parent="WIyWlLk6GJQsqaUBKTNV-1">
          <mxGeometry x="420" y="150" width="120" height="80" as="geometry" />
        </mxCell>
        <mxCell id="CiK8L1ViW6HMT-3uaAQ4-20" value="Purpose:&lt;div&gt;showcases your unique skills, achievements, and personal brand&lt;/div&gt;" style="ellipse;whiteSpace=wrap;html=1;" vertex="1" parent="WIyWlLk6GJQsqaUBKTNV-1">
          <mxGeometry x="420" y="270" width="120" height="80" as="geometry" />
        </mxCell>
        <mxCell id="CiK8L1ViW6HMT-3uaAQ4-21" value="Purpose:&lt;div&gt;Highlights my best work&lt;/div&gt;" style="ellipse;whiteSpace=wrap;html=1;" vertex="1" parent="WIyWlLk6GJQsqaUBKTNV-1">
          <mxGeometry x="420" y="390" width="120" height="80" as="geometry" />
        </mxCell>
        <mxCell id="CiK8L1ViW6HMT-3uaAQ4-22" value="Purpose:&lt;div&gt;Allows people to contact me.&lt;/div&gt;" style="ellipse;whiteSpace=wrap;html=1;" vertex="1" parent="WIyWlLk6GJQsqaUBKTNV-1">
          <mxGeometry x="420" y="510" width="120" height="80" as="geometry" />
        </mxCell>
      </root>
    </mxGraphModel>
  </diagram>
</mxfile>
